<?xml version="1.0" encoding="UTF-8" standalone="no"?>
<svg width="47px" height="39px" viewBox="0 0 47 39" version="1.1" xmlns="http://www.w3.org/2000/svg" xmlns:xlink="http://www.w3.org/1999/xlink" xmlns:sketch="http://www.bohemiancoding.com/sketch/ns">
    <!-- Generator: Sketch 3.2.2 (9983) - http://www.bohemiancoding.com/sketch -->
    <title>pebbles</title>
    <desc>Created with Sketch.</desc>
    <defs></defs>
    <g id="Page-1" stroke="none" stroke-width="1" fill="none" fill-rule="evenodd" sketch:type="MSPage">
        <g id="PR-Final-Logos" sketch:type="MSLayerGroup" transform="translate(-494.000000, 0.000000)" fill="#FFFFFF">
            <path d="M540.821,31.523 C540.821,27.495 537.556,24.229 533.527,24.229 C533.1,24.229 532.684,24.273 532.277,24.344 C531.874,24.373 531.028,24.331 530.522,23.572 C530.076,22.902 530.385,22.288 530.568,22.023 C530.578,22.01 530.587,21.997 530.596,21.985 C530.642,21.923 530.678,21.883 530.678,21.883 L530.672,21.883 C531.485,20.76 531.969,19.384 531.969,17.892 C531.969,14.123 528.913,11.067 525.144,11.067 C522.292,11.067 519.852,12.817 518.832,15.3 C518.686,15.57 518.22,16.309 517.449,16.309 C516.514,16.309 516.003,15.142 516.003,15.142 L516,15.149 C515.823,14.746 515.609,14.363 515.36,14.005 C515.201,13.76 514.762,12.964 515.258,12.209 C515.56,11.749 516.113,11.708 516.32,11.709 C516.685,11.781 517.063,11.82 517.449,11.82 C520.644,11.82 523.234,9.231 523.234,6.036 C523.234,2.841 520.644,0.252 517.449,0.252 C514.254,0.252 511.663,2.841 511.663,6.036 C511.663,7.17 511.995,8.224 512.559,9.116 C512.677,9.382 512.854,9.977 512.383,10.515 C511.821,11.157 510.969,11.157 510.684,11.138 C510.379,11.096 510.07,11.067 509.754,11.067 C505.984,11.067 502.929,14.123 502.929,17.892 C502.929,21.662 505.984,24.717 509.754,24.717 C512.503,24.717 514.866,23.088 515.947,20.746 C516.102,20.443 516.605,19.605 517.449,19.605 C518.421,19.605 518.991,20.852 518.991,20.852 L518.995,20.839 C520.096,23.131 522.432,24.717 525.144,24.717 C525.483,24.717 525.814,24.684 526.139,24.636 L526.137,24.641 C526.137,24.641 526.162,24.635 526.201,24.627 C526.253,24.619 526.307,24.612 526.359,24.603 C526.724,24.559 527.455,24.568 527.857,25.246 C528.399,26.16 527.501,27.415 527.501,27.415 L527.502,27.415 C527.194,27.866 526.94,28.355 526.738,28.871 L526.731,28.857 C526.731,28.857 526.46,29.848 525.484,29.848 C524.764,29.848 524.395,29.225 524.272,28.965 C523.235,26.2 520.575,24.229 517.449,24.229 C514.359,24.229 511.724,26.154 510.662,28.866 L510.657,28.857 C510.657,28.857 510.386,29.848 509.411,29.848 C508.646,29.848 508.277,29.145 508.177,28.921 C507.129,26.18 504.481,24.229 501.37,24.229 C497.342,24.229 494.077,27.495 494.077,31.523 C494.077,35.551 497.342,38.817 501.37,38.817 C504.162,38.817 506.586,37.247 507.811,34.943 C507.992,34.676 508.641,33.805 509.411,33.805 C510.277,33.805 510.893,34.755 511.021,34.969 C512.251,37.259 514.668,38.817 517.449,38.817 C520.249,38.817 522.677,37.237 523.899,34.923 C524.095,34.637 524.732,33.805 525.484,33.805 C526.46,33.805 527.122,35.016 527.122,35.016 L527.123,35.015 C528.36,37.28 530.764,38.817 533.527,38.817 C537.556,38.817 540.821,35.551 540.821,31.523" id="Fill-47" sketch:type="MSShapeGroup"></path>
        </g>
    </g>
</svg>